<svg width="8" height="4" viewBox="0 0 8 4" fill="none" xmlns="http://www.w3.org/2000/svg">
<path fill-rule="evenodd" clip-rule="evenodd" d="M1.33329 0C1.70148 0 1.99996 0.298477 1.99996 0.666667C1.99996 1.1971 2.21067 1.70581 2.58575 2.08088C2.96082 2.45595 3.46953 2.66667 3.99996 2.66667C4.53039 2.66667 5.0391 2.45595 5.41417 2.08088C5.78925 1.70581 5.99996 1.1971 5.99996 0.666667C5.99996 0.298477 6.29844 0 6.66663 0C7.03482 0 7.33329 0.298477 7.33329 0.666667C7.33329 1.55072 6.9821 2.39857 6.35698 3.02369C5.73186 3.64881 4.88401 4 3.99996 4C3.1159 4 2.26806 3.64881 1.64294 3.02369C1.01782 2.39857 0.666626 1.55072 0.666626 0.666667C0.666626 0.298477 0.965103 0 1.33329 0Z" fill="#F1F2F9"/>
</svg>
