<svg width="14" height="16" viewBox="0 0 14 16" fill="none" xmlns="http://www.w3.org/2000/svg">
<path fill-rule="evenodd" clip-rule="evenodd" d="M2.46634 0.933323C2.59224 0.765453 2.78984 0.666656 2.99967 0.666656H10.9997C11.2095 0.666656 11.4071 0.765453 11.533 0.933323L13.533 3.59999C13.6196 3.71539 13.6663 3.85574 13.6663 3.99999V13.3333C13.6663 13.8638 13.4556 14.3725 13.0806 14.7475C12.7055 15.1226 12.1968 15.3333 11.6663 15.3333H2.33301C1.80257 15.3333 1.29387 15.1226 0.918794 14.7475C0.543721 14.3725 0.333008 13.8638 0.333008 13.3333V3.99999C0.333008 3.85574 0.379793 3.71539 0.466341 3.59999L2.46634 0.933323ZM3.33301 1.99999L1.66634 4.22221V13.3333C1.66634 13.5101 1.73658 13.6797 1.8616 13.8047C1.98663 13.9298 2.1562 14 2.33301 14H11.6663C11.8432 14 12.0127 13.9298 12.1377 13.8047C12.2628 13.6797 12.333 13.5101 12.333 13.3333V4.22221L10.6663 1.99999H3.33301Z" fill="#F1F2F9"/>
<path fill-rule="evenodd" clip-rule="evenodd" d="M0.333008 4.00001C0.333008 3.63182 0.631485 3.33334 0.999674 3.33334H12.9997C13.3679 3.33334 13.6663 3.63182 13.6663 4.00001C13.6663 4.3682 13.3679 4.66668 12.9997 4.66668H0.999674C0.631485 4.66668 0.333008 4.3682 0.333008 4.00001Z" fill="#F1F2F9"/>
<path fill-rule="evenodd" clip-rule="evenodd" d="M4.33268 6C4.70087 6 4.99935 6.29848 4.99935 6.66667C4.99935 7.1971 5.21006 7.70581 5.58514 8.08088C5.96021 8.45595 6.46892 8.66667 6.99935 8.66667C7.52978 8.66667 8.03849 8.45595 8.41356 8.08088C8.78863 7.70581 8.99935 7.1971 8.99935 6.66667C8.99935 6.29848 9.29783 6 9.66602 6C10.0342 6 10.3327 6.29848 10.3327 6.66667C10.3327 7.55072 9.98149 8.39857 9.35637 9.02369C8.73125 9.64881 7.8834 10 6.99935 10C6.11529 10 5.26745 9.64881 4.64233 9.02369C4.0172 8.39857 3.66602 7.55072 3.66602 6.66667C3.66602 6.29848 3.96449 6 4.33268 6Z" fill="#F1F2F9"/>
</svg>
